<?xml version="1.0"?>
<svg xmlns="http://www.w3.org/2000/svg" width="512" height="512" viewBox="0 0 128 128"><g><g><path d="M96.816,87.268,85.129,75.58a46.252,46.252,0,1,0-9.546,9.546L87.27,96.814Z" fill="#8a87e0"/><path d="M48,84.25A36.252,36.252,0,1,1,84.253,48,36.292,36.292,0,0,1,48,84.25Z" fill="#f7f0eb"/><path d="M84.451,99.633,99.636,84.448l23.481,23.481a10.7,10.7,0,0,1,3.133,7.565v.055a10.7,10.7,0,0,1-10.7,10.7h0A10.7,10.7,0,0,1,108,123.122Z" fill="#63b9fd"/><path d="M70.506,33.881h0A10.472,10.472,0,0,0,62.5,30.158H61.57A17.172,17.172,0,0,0,48,36.807a17.17,17.17,0,0,0-13.568-6.649h-.7a10.75,10.75,0,0,0-7.651,3.081,10.472,10.472,0,0,0-.172,14.6L46.007,68.986a2.751,2.751,0,0,0,3.989,0L70.09,47.843A10.471,10.471,0,0,0,70.506,33.881Z" fill="#fd5b6e"/></g><g><path d="M48,10A38,38,0,1,0,86,48,38.045,38.045,0,0,0,48,10Zm0,72.5A34.5,34.5,0,1,1,82.5,48,34.541,34.541,0,0,1,48,82.5Z"/><path d="M124.353,106.691l-23.48-23.48a1.749,1.749,0,0,0-2.475,0l-1.582,1.582-10.45-10.45a1.749,1.749,0,1,0-2.474,2.474l10.45,10.451L87.27,94.339,76.82,83.889a1.752,1.752,0,0,0-2.282-.167,44.4,44.4,0,1,1,15.23-20.329,1.749,1.749,0,1,0,3.283,1.21A48.023,48.023,0,1,0,75.4,87.416l9.4,9.4L83.214,98.4a1.749,1.749,0,0,0,0,2.476L106.76,124.36a12.467,12.467,0,0,0,17.593-17.669Zm-8.8,17.806a8.887,8.887,0,0,1-6.32-2.614l-22.3-22.252,1.58-1.58,9.546-9.546,1.582-1.582,22.243,22.243a8.987,8.987,0,0,1-6.327,15.331Z"/><path d="M62.5,28.408H61.57A18.774,18.774,0,0,0,48,34.14a18.77,18.77,0,0,0-13.568-5.732h-.7a12.568,12.568,0,0,0-8.894,3.6,12.176,12.176,0,0,0-.2,17.044l20.1,21.141a4.5,4.5,0,0,0,6.525,0,1.75,1.75,0,0,0-2.537-2.41,1,1,0,0,1-1.451,0L27.182,46.639a8.693,8.693,0,0,1,.145-12.168,9.046,9.046,0,0,1,6.409-2.563h.7A15.314,15.314,0,0,1,46.618,37.88a1.813,1.813,0,0,0,2.767,0A15.314,15.314,0,0,1,61.57,31.908H62.5a8.722,8.722,0,0,1,6.322,14.731,1.75,1.75,0,0,0,2.537,2.41A12.222,12.222,0,0,0,62.5,28.408Z"/><path d="M60.564,55.326l-3.58,3.768a1.75,1.75,0,1,0,2.537,2.41L63.1,57.736a1.75,1.75,0,0,0-2.538-2.41Z"/></g></g></svg>
